<svg width="256" height="256" viewBox="0 0 256 256" fill="none" xmlns="http://www.w3.org/2000/svg">
	<path d="M244.194 90.3599C218.232 78.767 198.679 70.1604 178.791 95.2C166.639 110.504 163.617 131.142 151.296 145.62C131.1 169.357 102.964 167.005 79.3916 183.964C68.8927 191.522 61.0791 203.376 53.4609 213.607C49.7388 218.609 40.6672 235 43.4431 229.412C53.0705 210.013 71.6199 195.38 78.6872 174.023C83.6122 159.141 97.5301 132.357 106.35 111.337M130.416 74.4499C137.369 65.3064 146.366 54.4578 154.724 49.8988C160.992 46.4796 171.292 44.0345 184.218 48.2462C198.034 52.7482 205.68 76.1585 220.652 80.9922" stroke="#057A42" stroke-width="12" stroke-linecap="round" stroke-linejoin="round"/>
	<path d="M141.468 100.417C145.578 78.4621 85.4642 44.1845 46.4958 36.2548C7.52738 28.3251 5.86289 36.6956 19.2758 62.1322C32.5957 87.3885 64.4943 78.8143 79.0409 94.141C79.1905 94.2984 68.5381 100.046 67.5985 101.231C56.8402 114.833 99.4509 110.965 106.005 111.591" stroke="#057A42" stroke-width="12" stroke-linecap="round" stroke-linejoin="round"/>
	<ellipse cx="67.9058" cy="64.7287" rx="57.2713" ry="20.7459" transform="rotate(20.7968 67.9058 64.7287)" fill="#057A42"/>
	<ellipse cx="125.225" cy="91.8635" rx="57.2713" ry="18.8058" transform="rotate(-5.5935 125.225 91.8635)" fill="#057A42"/>
	<ellipse cx="125.491" cy="131.279" rx="57.2713" ry="24.1603" transform="rotate(-45.0536 125.491 131.279)" fill="#057A42"/>
	<ellipse cx="169.834" cy="72.8497" rx="33.0198" ry="24.1603" transform="rotate(-15.2451 169.834 72.8497)" fill="#057A42"/>
</svg>
